<svg width="14" height="16" viewBox="0 0 14 16" fill="none" xmlns="http://www.w3.org/2000/svg">
<path d="M9.35225 2.55483C9.85351 1.95654 10.2012 1.13997 10.2012 0.315311C10.2012 0.202122 10.1931 0.0889338 10.1688 0C9.36842 0.0323396 8.39823 0.533603 7.81612 1.21273C7.36337 1.73017 6.94295 2.55483 6.94295 3.37948C6.94295 3.50884 6.95912 3.63012 6.97529 3.67054C7.0238 3.67863 7.10465 3.6948 7.1855 3.6948C7.91314 3.6948 8.81865 3.2097 9.35225 2.55483ZM9.92628 3.86458C8.71355 3.86458 7.73527 4.6003 7.10465 4.6003C6.43361 4.6003 5.56044 3.91309 4.5094 3.91309C2.51243 3.91309 0.491211 5.56241 0.491211 8.667C0.491211 10.6074 1.23502 12.6529 2.16478 13.9707C2.9571 15.0864 3.6524 16 4.64684 16C5.64129 16 6.07787 15.3451 7.29869 15.3451C8.55185 15.3451 8.82673 15.9838 9.92628 15.9838C11.0097 15.9838 11.7292 14.9894 12.4083 14.0111C13.1764 12.8873 13.4917 11.7959 13.5079 11.7393C13.4432 11.7231 11.3654 10.8742 11.3654 8.50531C11.3654 6.45174 12.9985 5.53007 13.0875 5.4573C12.0203 3.91309 10.379 3.86458 9.92628 3.86458Z" fill="white" fill-opacity="0.9"/>
</svg>
