<svg width="12" height="15" viewBox="0 0 12 15" fill="none" xmlns="http://www.w3.org/2000/svg">
<path d="M2.62939 14.2217C1.97347 14.2217 1.48047 14.0566 1.15039 13.7266C0.824544 13.3965 0.661621 12.8993 0.661621 12.2349V2.60547C0.661621 1.94531 0.824544 1.44808 1.15039 1.11377C1.48047 0.77946 1.97347 0.612305 2.62939 0.612305H5.64453C5.88151 0.612305 6.08887 0.629232 6.2666 0.663086C6.44857 0.692708 6.61572 0.751953 6.76807 0.84082C6.92041 0.925456 7.07699 1.05029 7.23779 1.21533L10.7354 4.77637C10.9046 4.94987 11.0316 5.11491 11.1162 5.27148C11.2051 5.42383 11.2643 5.5931 11.2939 5.7793C11.3236 5.96549 11.3384 6.19613 11.3384 6.47119V12.2349C11.3384 12.895 11.1733 13.3901 10.8433 13.7202C10.5174 14.0545 10.0265 14.2217 9.37061 14.2217H2.62939ZM2.67383 13.1997H9.31982C9.6499 13.1997 9.89746 13.1151 10.0625 12.9458C10.2318 12.7765 10.3164 12.5332 10.3164 12.2158V6.51562H6.69824C6.30046 6.51562 6.00212 6.41618 5.80322 6.21729C5.60433 6.01839 5.50488 5.72005 5.50488 5.32227V1.63428H2.68018C2.3501 1.63428 2.10042 1.72103 1.93115 1.89453C1.76611 2.06803 1.68359 2.31136 1.68359 2.62451V12.2158C1.68359 12.5332 1.76611 12.7765 1.93115 12.9458C2.10042 13.1151 2.34798 13.1997 2.67383 13.1997ZM6.8125 5.55713H10.1196L6.46338 1.83105V5.20166C6.46338 5.32861 6.48877 5.4196 6.53955 5.47461C6.59456 5.52962 6.68555 5.55713 6.8125 5.55713Z" fill="#007AFF"/>
</svg>
