<svg width="32" height="20" viewBox="0 0 32 20" fill="none" xmlns="http://www.w3.org/2000/svg">
<g style="mix-blend-mode:hard-light" opacity="0.76" filter="url(#filter0_d_417_487)">
<path d="M8.15625 13.8516H20.6328C21.2995 13.8516 21.9089 13.7969 22.4609 13.6875C23.013 13.5781 23.487 13.3255 23.8828 12.9297C24.2839 12.5286 24.5365 12.0547 24.6406 11.5078C24.7448 10.9609 24.7969 10.3516 24.7969 9.67969V7.03906C24.7969 6.3724 24.7448 5.76562 24.6406 5.21875C24.5365 4.67188 24.2839 4.19792 23.8828 3.79688C23.4818 3.40104 23.0052 3.14844 22.4531 3.03906C21.9062 2.92969 21.2995 2.875 20.6328 2.875H8.14062C7.48438 2.875 6.88021 2.92969 6.32812 3.03906C5.78125 3.14844 5.30729 3.40365 4.90625 3.80469C4.51042 4.20052 4.25781 4.67188 4.14844 5.21875C4.04427 5.76562 3.99219 6.36719 3.99219 7.02344V9.67969C3.99219 10.3516 4.04427 10.9609 4.14844 11.5078C4.2526 12.0547 4.50521 12.5286 4.90625 12.9297C5.30729 13.3255 5.78125 13.5781 6.32812 13.6875C6.88021 13.7969 7.48958 13.8516 8.15625 13.8516ZM7.94531 12.5938C7.54427 12.5938 7.14844 12.5547 6.75781 12.4766C6.3724 12.3984 6.0599 12.2422 5.82031 12.0078C5.58594 11.7734 5.43229 11.4635 5.35938 11.0781C5.28646 10.6927 5.25 10.2995 5.25 9.89844V6.85156C5.25 6.4401 5.28646 6.04167 5.35938 5.65625C5.43229 5.26562 5.58594 4.95052 5.82031 4.71094C6.05469 4.47656 6.36719 4.32292 6.75781 4.25C7.15365 4.17188 7.55729 4.13281 7.96875 4.13281H20.8438C21.2448 4.13281 21.638 4.17188 22.0234 4.25C22.4141 4.32292 22.7292 4.47917 22.9688 4.71875C23.2031 4.95312 23.3568 5.26302 23.4297 5.64844C23.5026 6.03385 23.5391 6.42708 23.5391 6.82812V9.89844C23.5391 10.2995 23.5026 10.6927 23.4297 11.0781C23.3568 11.4635 23.2031 11.7734 22.9688 12.0078C22.7292 12.2474 22.4141 12.4062 22.0234 12.4844C21.638 12.5573 21.2448 12.5938 20.8438 12.5938H7.94531ZM25.8594 10.3828C26.0677 10.3672 26.2839 10.276 26.5078 10.1094C26.7318 9.9375 26.9219 9.70312 27.0781 9.40625C27.2344 9.10938 27.3125 8.76042 27.3125 8.35938C27.3125 7.96354 27.2344 7.61719 27.0781 7.32031C26.9219 7.02344 26.7318 6.78906 26.5078 6.61719C26.2839 6.44531 26.0677 6.35417 25.8594 6.34375V10.3828ZM7.63281 11.6016H21.1641C21.4349 11.6016 21.6536 11.5807 21.8203 11.5391C21.987 11.4974 22.1302 11.4193 22.25 11.3047C22.3646 11.1901 22.4427 11.0495 22.4844 10.8828C22.5312 10.7109 22.5547 10.4896 22.5547 10.2188V6.50781C22.5547 6.23698 22.5312 6.01823 22.4844 5.85156C22.4427 5.67969 22.3646 5.53646 22.25 5.42188C22.1302 5.30208 21.987 5.22396 21.8203 5.1875C21.6536 5.14583 21.4349 5.125 21.1641 5.125H7.63281C7.35677 5.125 7.13542 5.14583 6.96875 5.1875C6.80208 5.22396 6.66146 5.30208 6.54688 5.42188C6.43229 5.53646 6.35156 5.67969 6.30469 5.85156C6.26302 6.01823 6.24219 6.23698 6.24219 6.50781V10.2188C6.24219 10.4896 6.26302 10.7109 6.30469 10.8828C6.35156 11.0495 6.43229 11.1901 6.54688 11.3047C6.66667 11.4193 6.80729 11.4974 6.96875 11.5391C7.13542 11.5807 7.35677 11.6016 7.63281 11.6016Z" fill="black"/>
</g>
<defs>
<filter id="filter0_d_417_487" x="-0.0078125" y="0.875" width="31.3203" height="18.9766" filterUnits="userSpaceOnUse" color-interpolation-filters="sRGB">
<feFlood flood-opacity="0" result="BackgroundImageFix"/>
<feColorMatrix in="SourceAlpha" type="matrix" values="0 0 0 0 0 0 0 0 0 0 0 0 0 0 0 0 0 0 127 0" result="hardAlpha"/>
<feOffset dy="2"/>
<feGaussianBlur stdDeviation="2"/>
<feColorMatrix type="matrix" values="0 0 0 0 0 0 0 0 0 0 0 0 0 0 0 0 0 0 0.15 0"/>
<feBlend mode="normal" in2="BackgroundImageFix" result="effect1_dropShadow_417_487"/>
<feBlend mode="normal" in="SourceGraphic" in2="effect1_dropShadow_417_487" result="shape"/>
</filter>
</defs>
</svg>
