<svg width="22" height="22" viewBox="0 0 22 22" fill="none" xmlns="http://www.w3.org/2000/svg">
<g style="mix-blend-mode:hard-light" opacity="0.76" filter="url(#filter0_d_402_1721)">
<path d="M13.3523 4.55483C13.8535 3.95654 14.2012 3.13997 14.2012 2.31531C14.2012 2.20212 14.1931 2.08893 14.1688 2C13.3684 2.03234 12.3982 2.5336 11.8161 3.21273C11.3634 3.73017 10.943 4.55483 10.943 5.37948C10.943 5.50884 10.9591 5.63012 10.9753 5.67054C11.0238 5.67863 11.1047 5.6948 11.1855 5.6948C11.9131 5.6948 12.8186 5.2097 13.3523 4.55483ZM13.9263 5.86458C12.7135 5.86458 11.7353 6.6003 11.1047 6.6003C10.4336 6.6003 9.56044 5.91309 8.5094 5.91309C6.51243 5.91309 4.49121 7.56241 4.49121 10.667C4.49121 12.6074 5.23502 14.6529 6.16478 15.9707C6.9571 17.0864 7.6524 18 8.64684 18C9.64129 18 10.0779 17.3451 11.2987 17.3451C12.5518 17.3451 12.8267 17.9838 13.9263 17.9838C15.0097 17.9838 15.7292 16.9894 16.4083 16.0111C17.1764 14.8873 17.4917 13.7959 17.5079 13.7393C17.4432 13.7231 15.3654 12.8742 15.3654 10.5053C15.3654 8.45174 16.9985 7.53007 17.0875 7.4573C16.0203 5.91309 14.379 5.86458 13.9263 5.86458Z" fill="white"/>
</g>
</svg>
