<svg width="33" height="20" viewBox="0 0 33 20" fill="none" xmlns="http://www.w3.org/2000/svg">
<g style="mix-blend-mode:hard-light" opacity="0.76" filter="url(#filter0_d_402_1742)">
<path d="M9.15625 13.8516H21.6328C22.2995 13.8516 22.9089 13.7969 23.4609 13.6875C24.013 13.5781 24.487 13.3255 24.8828 12.9297C25.2839 12.5286 25.5365 12.0547 25.6406 11.5078C25.7448 10.9609 25.7969 10.3516 25.7969 9.67969V7.03906C25.7969 6.3724 25.7448 5.76562 25.6406 5.21875C25.5365 4.67188 25.2839 4.19792 24.8828 3.79688C24.4818 3.40104 24.0052 3.14844 23.4531 3.03906C22.9062 2.92969 22.2995 2.875 21.6328 2.875H9.14062C8.48438 2.875 7.88021 2.92969 7.32812 3.03906C6.78125 3.14844 6.30729 3.40365 5.90625 3.80469C5.51042 4.20052 5.25781 4.67188 5.14844 5.21875C5.04427 5.76562 4.99219 6.36719 4.99219 7.02344V9.67969C4.99219 10.3516 5.04427 10.9609 5.14844 11.5078C5.2526 12.0547 5.50521 12.5286 5.90625 12.9297C6.30729 13.3255 6.78125 13.5781 7.32812 13.6875C7.88021 13.7969 8.48958 13.8516 9.15625 13.8516ZM8.94531 12.5938C8.54427 12.5938 8.14844 12.5547 7.75781 12.4766C7.3724 12.3984 7.0599 12.2422 6.82031 12.0078C6.58594 11.7734 6.43229 11.4635 6.35938 11.0781C6.28646 10.6927 6.25 10.2995 6.25 9.89844V6.85156C6.25 6.4401 6.28646 6.04167 6.35938 5.65625C6.43229 5.26562 6.58594 4.95052 6.82031 4.71094C7.05469 4.47656 7.36719 4.32292 7.75781 4.25C8.15365 4.17188 8.55729 4.13281 8.96875 4.13281H21.8438C22.2448 4.13281 22.638 4.17188 23.0234 4.25C23.4141 4.32292 23.7292 4.47917 23.9688 4.71875C24.2031 4.95312 24.3568 5.26302 24.4297 5.64844C24.5026 6.03385 24.5391 6.42708 24.5391 6.82812V9.89844C24.5391 10.2995 24.5026 10.6927 24.4297 11.0781C24.3568 11.4635 24.2031 11.7734 23.9688 12.0078C23.7292 12.2474 23.4141 12.4062 23.0234 12.4844C22.638 12.5573 22.2448 12.5938 21.8438 12.5938H8.94531ZM26.8594 10.3828C27.0677 10.3672 27.2839 10.276 27.5078 10.1094C27.7318 9.9375 27.9219 9.70312 28.0781 9.40625C28.2344 9.10938 28.3125 8.76042 28.3125 8.35938C28.3125 7.96354 28.2344 7.61719 28.0781 7.32031C27.9219 7.02344 27.7318 6.78906 27.5078 6.61719C27.2839 6.44531 27.0677 6.35417 26.8594 6.34375V10.3828ZM8.63281 11.6016H22.1641C22.4349 11.6016 22.6536 11.5807 22.8203 11.5391C22.987 11.4974 23.1302 11.4193 23.25 11.3047C23.3646 11.1901 23.4427 11.0495 23.4844 10.8828C23.5312 10.7109 23.5547 10.4896 23.5547 10.2188V6.50781C23.5547 6.23698 23.5312 6.01823 23.4844 5.85156C23.4427 5.67969 23.3646 5.53646 23.25 5.42188C23.1302 5.30208 22.987 5.22396 22.8203 5.1875C22.6536 5.14583 22.4349 5.125 22.1641 5.125H8.63281C8.35677 5.125 8.13542 5.14583 7.96875 5.1875C7.80208 5.22396 7.66146 5.30208 7.54688 5.42188C7.43229 5.53646 7.35156 5.67969 7.30469 5.85156C7.26302 6.01823 7.24219 6.23698 7.24219 6.50781V10.2188C7.24219 10.4896 7.26302 10.7109 7.30469 10.8828C7.35156 11.0495 7.43229 11.1901 7.54688 11.3047C7.66667 11.4193 7.80729 11.4974 7.96875 11.5391C8.13542 11.5807 8.35677 11.6016 8.63281 11.6016Z" fill="black"/>
</g>
</svg>
